<svg width="24" height="24" viewBox="0 0 24 24" fill="none" xmlns="http://www.w3.org/2000/svg">
<path d="M14 1.00099C14.4479 1.00048 14.8919 1.08736 15.3057 1.2588C15.7193 1.43024 16.0949 1.682 16.4111 1.99904L19.9971 5.58498L20.1133 5.70607C20.3773 5.99587 20.5896 6.32953 20.7402 6.6924C20.9122 7.10672 21.0005 7.55144 21 8.00002V20C21 20.7957 20.6837 21.5585 20.1211 22.1211C19.5585 22.6837 18.7957 23 18 23H6C5.20435 23 4.44152 22.6837 3.87891 22.1211C3.3163 21.5585 3 20.7957 3 20V4.00002C3 3.20437 3.3163 2.44153 3.87891 1.87892C4.44152 1.31631 5.20435 1.00002 6 1.00002H14V1.00099ZM10.3037 10.9258C9.90084 10.8508 9.51284 11.1167 9.4375 11.5195L9.23926 12.5772L7.53906 12.5527C7.15049 12.5472 6.81462 12.8221 6.74316 13.2041C6.65235 13.6905 7.02093 14.142 7.51562 14.1494L8.94238 14.1699L8.5127 16.4697L6.81836 16.4453C6.42607 16.4397 6.08669 16.7178 6.01465 17.1035C5.92328 17.5943 6.29572 18.0492 6.79492 18.0567L8.21289 18.0772L8.09668 18.7002C8.02142 19.1033 8.28734 19.4911 8.69043 19.5664C9.09338 19.6416 9.48119 19.3765 9.55664 18.9736L9.71973 18.0996L12.4736 18.1406L12.3271 18.9258C12.2519 19.3289 12.5178 19.7167 12.9209 19.792C13.3238 19.8672 13.7116 19.6021 13.7871 19.1992L13.9805 18.1631L15.8115 18.1904C16.2039 18.1963 16.5441 17.9189 16.6162 17.5332C16.7079 17.0423 16.3353 16.5866 15.8359 16.5791L14.2803 16.5557L14.71 14.2559L16.5479 14.2832C16.9366 14.289 17.2733 14.014 17.3447 13.6319C17.4356 13.1454 17.0661 12.6939 16.5713 12.6865L15.0068 12.6631L15.1309 12.0029C15.206 11.6 14.9401 11.212 14.5371 11.1367C14.1341 11.0616 13.7462 11.3275 13.6709 11.7305L13.5 12.6406L10.7461 12.5996L10.8975 11.792C10.9725 11.3891 10.7067 11.0011 10.3037 10.9258ZM13.2031 14.2334L12.7734 16.5332L10.0195 16.4922L10.4482 14.1924L13.2031 14.2334ZM14.5 6.50002C14.5 7.05229 14.9477 7.50001 15.5 7.50002H19.5L14.5 2.50002V6.50002Z" fill="black"/>
</svg>
